<svg xmlns="http://www.w3.org/2000/svg" viewBox="0 0 24 24">
  <linearGradient id="grad" x1="0" y1="0" x2="1" y2="1">
    <stop offset="0%" stop-color="#f58529"/>
    <stop offset="50%" stop-color="#dd2a7b"/>
    <stop offset="100%" stop-color="#515bd4"/>
  </linearGradient>
  <path fill="url(#grad)" d="M12 2.163c3.204 0 3.584.012 4.85.07 1.17.056 1.97.248 2.43.415a4.92 4.92 0 0 1 1.8 1.048 4.92 4.92 0 0 1 1.048 1.8c.167.46.36 1.26.415 2.43.058 1.267.07 1.647.07 4.851s-.012 3.584-.07 4.85c-.056 1.17-.248 1.97-.415 2.43a4.92 4.92 0 0 1-1.048 1.8 4.92 4.92 0 0 1-1.8 1.048c-.46.167-1.26.36-2.43.415-1.267.058-1.647.07-4.851.07s-3.584-.012-4.85-.07c-1.17-.056-1.97-.248-2.43-.415a4.92 4.92 0 0 1-1.8-1.048 4.92 4.92 0 0 1-1.048-1.8c-.167-.46-.36-1.26-.415-2.43C2.175 15.584 2.163 15.204 2.163 12s.012-3.584.07-4.85c.056-1.17.248-1.97.415-2.43a4.92 4.92 0 0 1 1.048-1.8 4.92 4.92 0 0 1 1.8-1.048c.46-.167 1.26-.36 2.43-.415C8.416 2.175 8.796 2.163 12 2.163zm0 1.838c-3.17 0-3.552.012-4.806.07-1.034.048-1.593.22-1.963.366a3.082 3.082 0 0 0-1.12.725 3.082 3.082 0 0 0-.725 1.12c-.146.37-.318.929-.366 1.963-.058 1.254-.07 1.636-.07 4.806s.012 3.552.07 4.806c.048 1.034.22 1.593.366 1.963.17.434.393.826.725 1.12.294.332.686.556 1.12.725.37.146.929.318 1.963.366 1.254.058 1.636.07 4.806.07s3.552-.012 4.806-.07c1.034-.048 1.593-.22 1.963-.366a3.082 3.082 0 0 0 1.12-.725 3.082 3.082 0 0 0 .725-1.12c.146-.37.318-.929.366-1.963.058-1.254.07-1.636.07-4.806s-.012-3.552-.07-4.806c-.048-1.034-.22-1.593-.366-1.963a3.082 3.082 0 0 0-.725-1.12 3.082 3.082 0 0 0-1.12-.725c-.37-.146-.929-.318-1.963-.366-1.254-.058-1.636-.07-4.806-.07zm0 4.838a5 5 0 1 1 0 10 5 5 0 0 1 0-10zm0 1.838a3.162 3.162 0 1 0 0 6.324 3.162 3.162 0 0 0 0-6.324zm6.406-3.844a1.17 1.17 0 1 1 0 2.34 1.17 1.17 0 0 1 0-2.34z"/>
</svg>

