<svg xmlns="http://www.w3.org/2000/svg" viewBox="0 0 24 24">
  <path fill="#0A66C2" d="M22.225 0H1.771C.792 0 0 .774 0 1.729v20.542C0 23.225.792 24 1.771 24h20.451C23.206 24 24 23.225 24 22.271V1.729C24 .774 23.206 0 22.225 0zM7.125 20.452H3.557V9.047h3.568v11.405zM5.341 7.672c-1.142 0-2.066-.929-2.066-2.073 0-1.145.924-2.074 2.066-2.074s2.065.929 2.065 2.074c0 1.144-.924 2.073-2.065 2.073zM20.452 20.452h-3.567v-5.603c0-1.337-.024-3.061-1.866-3.061-1.869 0-2.155 1.459-2.155 2.967v5.697h-3.568V9.047h3.426v1.561h.048c.477-.903 1.637-1.857 3.368-1.857 3.602 0 4.268 2.37 4.268 5.451v6.25z"/>
</svg>

